<?xml version="1.0" encoding="UTF-8"?>
<!DOCTYPE svg PUBLIC "-//W3C//DTD SVG 1.1//EN" "http://www.w3.org/Graphics/SVG/1.1/DTD/svg11.dtd">
<svg xmlns="http://www.w3.org/2000/svg" version="1.1" width="499px" height="143px" style="shape-rendering:geometricPrecision; text-rendering:geometricPrecision; image-rendering:optimizeQuality; fill-rule:evenodd; clip-rule:evenodd" xmlns:xlink="http://www.w3.org/1999/xlink">
<g><path style="opacity:0.991" fill="#10b3e2" d="M 102.5,0.5 C 102.5,2.16667 102.5,3.83333 102.5,5.5C 85.8333,5.5 69.1667,5.5 52.5,5.5C 50.5977,8.33732 49.931,11.6707 50.5,15.5C 67.5,15.5 84.5,15.5 101.5,15.5C 101.5,16.8333 101.5,18.1667 101.5,19.5C 84.83,19.3334 68.1633,19.5001 51.5,20C 50.5495,23.0567 50.2161,26.2234 50.5,29.5C 51.791,29.7373 52.791,29.404 53.5,28.5C 53.8333,28.5 54.1667,28.5 54.5,28.5C 54.8333,28.5 55.1667,28.5 55.5,28.5C 60.5,28.5 65.5,28.5 70.5,28.5C 70.5,30.8333 70.5,33.1667 70.5,35.5C 64.5,35.5 58.5,35.5 52.5,35.5C 51.5233,38.2869 51.19,41.2869 51.5,44.5C 57.5,44.5 63.5,44.5 69.5,44.5C 69.5,46.1667 69.5,47.8333 69.5,49.5C 63.8236,49.3339 58.1569,49.5006 52.5,50C 51.1834,52.9365 51.1834,55.7699 52.5,58.5C 53.1667,58.5 53.5,58.1667 53.5,57.5C 53.8333,57.5 54.1667,57.5 54.5,57.5C 59.6405,58.4881 64.9738,58.8214 70.5,58.5C 70.5,60.8333 70.5,63.1667 70.5,65.5C 64.5,65.5 58.5,65.5 52.5,65.5C 52.1984,68.0593 52.5318,70.3926 53.5,72.5C 53.8333,72.5 54.1667,72.5 54.5,72.5C 59.8333,72.5 65.1667,72.5 70.5,72.5C 70.5,74.8333 70.5,77.1667 70.5,79.5C 64.1667,79.5 57.8333,79.5 51.5,79.5C 51.5,82.5 51.5,85.5 51.5,88.5C 57.5,88.5 63.5,88.5 69.5,88.5C 70.4682,90.6074 70.8016,92.9407 70.5,95.5C 64.5,95.5 58.5,95.5 52.5,95.5C 51.9898,98.3878 52.6565,100.721 54.5,102.5C 55.8333,101.167 57.1667,101.167 58.5,102.5C 62.5,102.5 66.5,102.5 70.5,102.5C 70.5,104.833 70.5,107.167 70.5,109.5C 57.8333,109.5 45.1667,109.5 32.5,109.5C 32.5,80.5 32.5,51.5 32.5,22.5C 21.8333,22.5 11.1667,22.5 0.5,22.5C 0.5,15.1667 0.5,7.83333 0.5,0.5C 34.5,0.5 68.5,0.5 102.5,0.5 Z"/></g>
<g><path style="opacity:0.271" fill="#d4eff8" d="M 102.5,0.5 C 103.586,0.619985 104.253,1.28665 104.5,2.5C 103.927,4.35392 103.593,6.18725 103.5,8C 86.8367,8.49993 70.17,8.6666 53.5,8.5C 53.5,10.1667 53.5,11.8333 53.5,13.5C 52.5269,11.0521 52.1936,8.38544 52.5,5.5C 69.1667,5.5 85.8333,5.5 102.5,5.5C 102.5,3.83333 102.5,2.16667 102.5,0.5 Z"/></g>
<g><path style="opacity:0.07" fill="#fcfefe" d="M 72.5,13.5 C 82.6584,12.3415 92.9917,12.1748 103.5,13C 104.451,16.0567 104.784,19.2234 104.5,22.5C 87.5,22.5 70.5,22.5 53.5,22.5C 53.3253,24.6208 53.6586,26.6208 54.5,28.5C 54.1667,28.5 53.8333,28.5 53.5,28.5C 52.5318,26.3926 52.1984,24.0593 52.5,21.5C 69.1667,21.5 85.8333,21.5 102.5,21.5C 102.5,18.8333 102.5,16.1667 102.5,13.5C 92.5,13.5 82.5,13.5 72.5,13.5 Z"/></g>
<g><path style="opacity:0.982" fill="#59c4e8" d="M 52.5,5.5 C 52.1936,8.38544 52.5269,11.0521 53.5,13.5C 59.8333,13.5 66.1667,13.5 72.5,13.5C 82.5,13.5 92.5,13.5 102.5,13.5C 102.5,16.1667 102.5,18.8333 102.5,21.5C 85.8333,21.5 69.1667,21.5 52.5,21.5C 52.1984,24.0593 52.5318,26.3926 53.5,28.5C 52.791,29.404 51.791,29.7373 50.5,29.5C 50.2161,26.2234 50.5495,23.0567 51.5,20C 68.1633,19.5001 84.83,19.3334 101.5,19.5C 101.5,18.1667 101.5,16.8333 101.5,15.5C 84.5,15.5 67.5,15.5 50.5,15.5C 49.931,11.6707 50.5977,8.33732 52.5,5.5 Z"/></g>
<g><path style="opacity:0.949" fill="#8ed7ef" d="M 132.5,28.5 C 132.5,29.1667 132.5,29.8333 132.5,30.5C 123.685,29.6284 115.018,29.2951 106.5,29.5C 115.086,26.0718 123.753,25.7385 132.5,28.5 Z"/></g>
<g><path style="opacity:0.651" fill="#a7dff3" d="M 444.5,28.5 C 450.987,27.346 457.654,27.1794 464.5,28C 468.627,28.5599 471.96,30.3932 474.5,33.5C 464.79,30.2652 454.79,28.5986 444.5,28.5 Z"/></g>
<g><path style="opacity:0.993" fill="#1eb4e3" d="M 106.5,29.5 C 115.018,29.2951 123.685,29.6284 132.5,30.5C 145.724,33.8899 154.224,42.2232 158,55.5C 159.257,61.7688 159.757,68.1021 159.5,74.5C 139.5,74.5 119.5,74.5 99.5,74.5C 99.0255,78.4158 100.025,81.7491 102.5,84.5C 104.779,89.7766 108.779,92.7766 114.5,93.5C 122.756,94.904 130.09,93.0706 136.5,88C 137.283,85.8816 138.616,84.3816 140.5,83.5C 146.5,83.5 152.5,83.5 158.5,83.5C 155.777,94.7379 149.11,102.905 138.5,108C 126.535,111.126 114.535,111.292 102.5,108.5C 95.9526,105.225 90.6193,100.559 86.5,94.5C 86.1109,90.3873 84.6109,86.7206 82,83.5C 81.2747,73.8062 81.4414,64.1395 82.5,54.5C 83.2268,49.0464 85.5601,44.3797 89.5,40.5C 94.3354,35.5802 100.002,31.9135 106.5,29.5 Z M 127.5,46.5 C 133.21,49.5122 137.21,54.0122 139.5,60C 127.171,60.4999 114.838,60.6665 102.5,60.5C 106.842,48.8265 115.176,44.1599 127.5,46.5 Z"/></g>
<g><path style="opacity:0.989" fill="#28b5e3" d="M 196.5,28.5 C 206.694,28.6978 216.694,30.1978 226.5,33C 231.17,35.9157 235.336,39.4157 239,43.5C 239.767,46.5028 241.267,49.0028 243.5,51C 244.348,53.7695 244.681,56.6029 244.5,59.5C 237.825,59.6663 231.158,59.4996 224.5,59C 223.934,58.0053 223.267,57.172 222.5,56.5C 219.042,52.6989 215.042,49.6989 210.5,47.5C 194.019,45.2994 185.352,52.6328 184.5,69.5C 184.672,76.1806 187.006,82.0139 191.5,87C 194.11,88.4814 196.777,89.6481 199.5,90.5C 210.082,93.6335 218.082,90.3002 223.5,80.5C 230.5,80.5 237.5,80.5 244.5,80.5C 243.768,89.4204 239.768,96.587 232.5,102C 229.638,102.93 227.305,104.597 225.5,107C 214.752,110.639 203.752,111.472 192.5,109.5C 188.895,109.201 185.561,108.035 182.5,106C 161.976,89.3473 157.81,69.1807 170,45.5C 176.654,36.4237 185.487,30.757 196.5,28.5 Z"/></g>
<g><path style="opacity:0.99" fill="#27b5e3" d="M 289.5,27.5 C 297.253,29.373 303.753,33.373 309,39.5C 312.185,43.5522 313.685,48.2188 313.5,53.5C 307.833,53.5 302.167,53.5 296.5,53.5C 294.386,52.6398 293.22,50.9732 293,48.5C 291.385,47.6138 289.885,46.6138 288.5,45.5C 282.818,44.031 277.151,44.531 271.5,47C 270.556,49.7191 270.223,52.5525 270.5,55.5C 271.36,57.6138 273.027,58.7805 275.5,59C 283.783,60.5769 292.116,61.7436 300.5,62.5C 302.786,62.595 304.786,63.2616 306.5,64.5C 307.475,67.248 309.308,69.248 312,70.5C 319.548,88.2028 314.715,101.036 297.5,109C 287.523,110.793 277.523,110.96 267.5,109.5C 256.898,106.902 250.898,100.235 249.5,89.5C 249.5,87.8333 249.5,86.1667 249.5,84.5C 255.509,84.3338 261.509,84.5005 267.5,85C 268.833,87.3333 270.167,89.6667 271.5,92C 273.025,93.0086 274.692,93.5086 276.5,93.5C 285.057,96.6568 291.39,94.3234 295.5,86.5C 294.533,83.8708 292.867,81.8708 290.5,80.5C 289.878,78.5443 288.545,77.211 286.5,76.5C 279.438,75.7336 272.438,74.5669 265.5,73C 261.771,71.7451 258.438,69.9118 255.5,67.5C 253.281,62.7305 251.947,57.7305 251.5,52.5C 251.399,48.9272 252.066,45.5939 253.5,42.5C 256.413,35.7566 261.413,31.2566 268.5,29C 275.426,27.661 282.426,27.161 289.5,27.5 Z"/></g>
<g><path style="opacity:0.101" fill="#f5fbfd" d="M 396.5,29.5 C 397.171,55.5689 397.838,81.7356 398.5,108C 397.833,109 397.167,110 396.5,111C 389.808,111.831 383.142,111.664 376.5,110.5C 374.415,108.603 374.415,106.603 376.5,104.5C 376.5,105.833 376.5,107.167 376.5,108.5C 382.833,108.5 389.167,108.5 395.5,108.5C 396.498,82.3386 396.831,56.0053 396.5,29.5 Z"/></g>
<g><path style="opacity:0.991" fill="#19b3e2" d="M 444.5,28.5 C 454.79,28.5986 464.79,30.2652 474.5,33.5C 478.833,35.8333 482.167,39.1667 484.5,43.5C 485.844,48.7018 487.678,53.7018 490,58.5C 493.158,76.6486 487.991,91.8153 474.5,104C 461.879,112.318 449.212,112.485 436.5,104.5C 435.817,104.863 435.15,105.196 434.5,105.5C 433.599,104.71 432.932,103.71 432.5,102.5C 431.531,101.691 430.698,100.691 430,99.5C 429.5,113.829 429.333,128.163 429.5,142.5C 422.833,142.5 416.167,142.5 409.5,142.5C 409.5,105.167 409.5,67.8333 409.5,30.5C 410.959,30.5674 412.292,30.2341 413.5,29.5C 418.997,28.2783 424.664,28.2783 430.5,29.5C 430.336,32.1873 430.503,34.854 431,37.5C 434.411,32.8772 438.911,29.8772 444.5,28.5 Z M 452.5,47.5 C 460.144,48.8168 465.144,53.1501 467.5,60.5C 467.312,62.1033 467.812,63.4366 469,64.5C 469.549,72.9162 467.382,80.5829 462.5,87.5C 455.582,91.9914 448.248,92.658 440.5,89.5C 429.375,78.4724 428.042,66.3057 436.5,53C 441.183,49.2723 446.516,47.439 452.5,47.5 Z"/></g>
<g><path style="opacity:0.987" fill="#0db2e2" d="M 344.5,29.5 C 344.333,46.5033 344.5,63.5033 345,80.5C 345.901,83.0707 347.234,85.404 349,87.5C 350.11,89.0368 351.61,89.7035 353.5,89.5C 364.311,93.3912 371.311,89.7245 374.5,78.5C 375.117,78.6107 375.617,78.944 376,79.5C 376.5,63.1701 376.667,46.8367 376.5,30.5C 377.791,30.7373 378.791,30.404 379.5,29.5C 384.167,29.5 388.833,29.5 393.5,29.5C 395.491,55.4788 396.158,81.8121 395.5,108.5C 389.167,108.5 382.833,108.5 376.5,108.5C 376.5,107.167 376.5,105.833 376.5,104.5C 376.5,103.5 376.5,102.5 376.5,101.5C 376.631,100.761 376.464,100.094 376,99.5C 370.387,106.929 362.887,110.596 353.5,110.5C 349.82,110.221 346.153,109.888 342.5,109.5C 338.592,108.723 335.592,106.723 333.5,103.5C 331.087,99.6777 328.921,95.6777 327,91.5C 326.5,71.1694 326.333,50.8361 326.5,30.5C 332.509,30.299 338.509,29.9657 344.5,29.5 Z"/></g>
<g><path style="opacity:0.525" fill="#58c4e8" d="M 498.5,24.5 C 498.5,27.1667 498.5,29.8333 498.5,32.5C 497.636,33.6883 496.636,34.8549 495.5,36C 491.779,36.6781 488.112,36.5114 484.5,35.5C 481.616,30.6193 482.283,26.1193 486.5,22C 491.21,20.0142 495.21,20.8476 498.5,24.5 Z"/></g>
<g><path style="opacity:0.11" fill="#bce8f5" d="M 493.5,26.5 C 495.745,28.4171 496.078,30.7504 494.5,33.5C 486.785,35.7388 484.285,33.0722 487,25.5C 489.373,24.457 491.54,24.7903 493.5,26.5 Z"/></g>
<g><path style="opacity:0.537" fill="#39bde6" d="M 493.5,26.5 C 493.808,28.924 493.474,31.2573 492.5,33.5C 491.5,32.1667 490.5,32.1667 489.5,33.5C 488.526,31.2573 488.192,28.924 488.5,26.5C 490.167,26.5 491.833,26.5 493.5,26.5 Z"/></g>
<g><path style="opacity:0.033" fill="#e6f5fb" d="M 498.5,32.5 C 498.5,33.5 498.5,34.5 498.5,35.5C 497.325,38.5946 494.992,39.9279 491.5,39.5C 488.059,39.9499 485.725,38.6166 484.5,35.5C 488.112,36.5114 491.779,36.6781 495.5,36C 496.636,34.8549 497.636,33.6883 498.5,32.5 Z"/></g>
<g><path style="opacity:0.089" fill="#e9f7fc" d="M 222.5,56.5 C 223.267,57.172 223.934,58.0053 224.5,59C 231.158,59.4996 237.825,59.6663 244.5,59.5C 244.681,56.6029 244.348,53.7695 243.5,51C 241.267,49.0028 239.767,46.5028 239,43.5C 235.336,39.4157 231.17,35.9157 226.5,33C 216.694,30.1978 206.694,28.6978 196.5,28.5C 214.725,23.741 229.891,28.741 242,43.5C 244.918,48.8463 246.751,54.513 247.5,60.5C 239.493,60.6664 231.493,60.4997 223.5,60C 222.663,58.9887 222.33,57.8221 222.5,56.5 Z"/></g>
<g><path style="opacity:0.125" fill="#f3fbfd" d="M 55.5,28.5 C 60.6503,27.3493 65.9836,27.1826 71.5,28C 72.6105,30.7372 72.7772,33.5706 72,36.5C 65.9242,37.4764 59.7576,37.8097 53.5,37.5C 53.5,39.1667 53.5,40.8333 53.5,42.5C 58.5649,42.781 63.5649,42.4476 68.5,41.5C 69.5,42 70.5,42.5 71.5,43C 72.4505,46.0567 72.7839,49.2234 72.5,52.5C 66.1667,52.5 59.8333,52.5 53.5,52.5C 53.5,54.1667 53.5,55.8333 53.5,57.5C 53.5,58.1667 53.1667,58.5 52.5,58.5C 52.5,56.1667 52.5,53.8333 52.5,51.5C 58.5,51.5 64.5,51.5 70.5,51.5C 70.5,48.8333 70.5,46.1667 70.5,43.5C 64.5,43.5 58.5,43.5 52.5,43.5C 52.5,40.8333 52.5,38.1667 52.5,35.5C 58.5,35.5 64.5,35.5 70.5,35.5C 70.5,33.1667 70.5,30.8333 70.5,28.5C 65.5,28.5 60.5,28.5 55.5,28.5 Z"/></g>
<g><path style="opacity:0.139" fill="#f2fafd" d="M 289.5,27.5 C 304.324,29.1541 313.324,37.3207 316.5,52C 316.355,52.772 316.022,53.4387 315.5,54C 308.986,54.82 302.653,54.6533 296.5,53.5C 302.167,53.5 307.833,53.5 313.5,53.5C 313.685,48.2188 312.185,43.5522 309,39.5C 303.753,33.373 297.253,29.373 289.5,27.5 Z"/></g>
<g><path style="opacity:0.111" fill="#f5fcfd" d="M 288.5,45.5 C 284.064,45.2101 279.73,45.7101 275.5,47C 272.615,50.9438 272.948,54.4438 276.5,57.5C 274.297,57.3964 272.297,56.7298 270.5,55.5C 270.223,52.5525 270.556,49.7191 271.5,47C 277.151,44.531 282.818,44.031 288.5,45.5 Z"/></g>
<g><path style="opacity:0.059" fill="#e8f7fc" d="M 127.5,46.5 C 115.176,44.1599 106.842,48.8265 102.5,60.5C 101.882,53.3033 105.215,48.4699 112.5,46C 117.727,43.8665 122.727,44.0332 127.5,46.5 Z"/></g>
<g><path style="opacity:0.103" fill="#f7fcfd" d="M 132.5,28.5 C 148.077,32.606 157.577,42.606 161,58.5C 161.191,64.0829 161.691,69.5829 162.5,75C 162.043,75.414 161.709,75.914 161.5,76.5C 141.845,77.4996 122.178,77.833 102.5,77.5C 102.687,79.5643 103.187,81.5643 104,83.5C 106.821,87.6399 110.321,90.9732 114.5,93.5C 108.779,92.7766 104.779,89.7766 102.5,84.5C 101.735,81.9039 101.401,79.2372 101.5,76.5C 121.196,77.1543 140.529,76.4876 159.5,74.5C 159.757,68.1021 159.257,61.7688 158,55.5C 154.224,42.2232 145.724,33.8899 132.5,30.5C 132.5,29.8333 132.5,29.1667 132.5,28.5 Z"/></g>
<g><path style="opacity:0.035" fill="#c9ebf8" d="M 253.5,42.5 C 252.066,45.5939 251.399,48.9272 251.5,52.5C 251.947,57.7305 253.281,62.7305 255.5,67.5C 253.526,65.572 252.026,63.2387 251,60.5C 250.333,55.5 250.333,50.5 251,45.5C 251.377,44.0577 252.21,43.0577 253.5,42.5 Z"/></g>
<g><path style="opacity:0.565" fill="#8bd7f0" d="M 52.5,35.5 C 52.5,38.1667 52.5,40.8333 52.5,43.5C 58.5,43.5 64.5,43.5 70.5,43.5C 70.5,46.1667 70.5,48.8333 70.5,51.5C 64.5,51.5 58.5,51.5 52.5,51.5C 52.5,53.8333 52.5,56.1667 52.5,58.5C 51.1834,55.7699 51.1834,52.9365 52.5,50C 58.1569,49.5006 63.8236,49.3339 69.5,49.5C 69.5,47.8333 69.5,46.1667 69.5,44.5C 63.5,44.5 57.5,44.5 51.5,44.5C 51.19,41.2869 51.5233,38.2869 52.5,35.5 Z"/></g>
<g><path style="opacity:0.442" fill="#85d3ef" d="M 344.5,29.5 C 338.509,29.9657 332.509,30.299 326.5,30.5C 326.333,50.8361 326.5,71.1694 327,91.5C 328.921,95.6777 331.087,99.6777 333.5,103.5C 331.983,103.489 330.816,102.823 330,101.5C 328.318,98.1356 326.651,94.8022 325,91.5C 323.435,71.1971 323.101,50.8637 324,30.5C 324.5,30 325,29.5 325.5,29C 332.014,28.18 338.347,28.3467 344.5,29.5 Z"/></g>
<g><path style="opacity:0.596" fill="#98daf1" d="M 270.5,55.5 C 272.297,56.7298 274.297,57.3964 276.5,57.5C 282.858,58.0865 289.191,58.9198 295.5,60C 297.653,60.0995 299.319,60.9328 300.5,62.5C 292.116,61.7436 283.783,60.5769 275.5,59C 273.027,58.7805 271.36,57.6138 270.5,55.5 Z"/></g>
<g><path style="opacity:0.145" fill="#caecf8" d="M 344.5,29.5 C 345.5,29.5 346.5,29.5 347.5,29.5C 347.333,46.5033 347.5,63.5033 348,80.5C 348.843,84.2004 350.676,87.2004 353.5,89.5C 351.61,89.7035 350.11,89.0368 349,87.5C 347.234,85.404 345.901,83.0707 345,80.5C 344.5,63.5033 344.333,46.5033 344.5,29.5 Z"/></g>
<g><path style="opacity:0.125" fill="#a4e2f5" d="M 379.5,29.5 C 378.791,30.404 377.791,30.7373 376.5,30.5C 376.667,46.8367 376.5,63.1701 376,79.5C 375.617,78.944 375.117,78.6107 374.5,78.5C 374.333,62.4965 374.5,46.4965 375,30.5C 376.347,28.5339 377.847,28.2006 379.5,29.5 Z"/></g>
<g><path style="opacity:0.026" fill="#dcf2fa" d="M 484.5,43.5 C 487.537,46.0601 489.371,49.3935 490,53.5C 491.972,64.1583 491.972,74.8249 490,85.5C 481.786,107.192 466.286,115.692 443.5,111C 440.436,109.141 437.436,107.308 434.5,105.5C 435.15,105.196 435.817,104.863 436.5,104.5C 449.212,112.485 461.879,112.318 474.5,104C 487.991,91.8153 493.158,76.6486 490,58.5C 487.678,53.7018 485.844,48.7018 484.5,43.5 Z"/></g>
<g><path style="opacity:0.077" fill="#edf8fc" d="M 452.5,47.5 C 446.516,47.439 441.183,49.2723 436.5,53C 428.042,66.3057 429.375,78.4724 440.5,89.5C 436.304,88.1438 433.137,85.4771 431,81.5C 428.467,71.8823 429.134,62.549 433,53.5C 438.41,47.5272 444.91,45.5272 452.5,47.5 Z"/></g>
<g><path style="opacity:0.047" fill="#e6f6fc" d="M 210.5,47.5 C 193.218,48.9508 185.718,58.2841 188,75.5C 190.202,81.8546 194.036,86.8546 199.5,90.5C 196.777,89.6481 194.11,88.4814 191.5,87C 187.006,82.0139 184.672,76.1806 184.5,69.5C 185.352,52.6328 194.019,45.2994 210.5,47.5 Z"/></g>
<g><path style="opacity:0.218" fill="#e3f5fb" d="M 54.5,57.5 C 60.5,57.5 66.5,57.5 72.5,57.5C 72.5,60.5 72.5,63.5 72.5,66.5C 66.1667,66.5 59.8333,66.5 53.5,66.5C 53.5,68.5 53.5,70.5 53.5,72.5C 52.5318,70.3926 52.1984,68.0593 52.5,65.5C 58.5,65.5 64.5,65.5 70.5,65.5C 70.5,63.1667 70.5,60.8333 70.5,58.5C 64.9738,58.8214 59.6405,58.4881 54.5,57.5 Z"/></g>
<g><path style="opacity:0.072" fill="#f8fcfd" d="M 54.5,72.5 C 59.9846,71.3483 65.6513,71.1816 71.5,72C 72.4558,75.3936 72.7892,78.8936 72.5,82.5C 66.1667,82.5 59.8333,82.5 53.5,82.5C 53.5,84.1667 53.5,85.8333 53.5,87.5C 52.5386,85.7354 52.2053,83.7354 52.5,81.5C 58.9262,82.12 64.9262,81.4533 70.5,79.5C 70.5,77.1667 70.5,74.8333 70.5,72.5C 65.1667,72.5 59.8333,72.5 54.5,72.5 Z"/></g>
<g><path style="opacity:0.46" fill="#a9e1f4" d="M 159.5,74.5 C 140.529,76.4876 121.196,77.1543 101.5,76.5C 101.401,79.2372 101.735,81.9039 102.5,84.5C 100.025,81.7491 99.0255,78.4158 99.5,74.5C 119.5,74.5 139.5,74.5 159.5,74.5 Z"/></g>
<g><path style="opacity:0.682" fill="#9ad9f1" d="M 255.5,67.5 C 258.438,69.9118 261.771,71.7451 265.5,73C 272.438,74.5669 279.438,75.7336 286.5,76.5C 288.545,77.211 289.878,78.5443 290.5,80.5C 282.207,78.6713 273.874,76.838 265.5,75C 261.093,73.6608 257.76,71.1608 255.5,67.5 Z"/></g>
<g><path style="opacity:0.977" fill="#ace1f3" d="M 70.5,79.5 C 64.9262,81.4533 58.9262,82.12 52.5,81.5C 52.2053,83.7354 52.5386,85.7354 53.5,87.5C 57.1667,87.5 60.8333,87.5 64.5,87.5C 66.4147,87.2155 68.0813,87.5489 69.5,88.5C 63.5,88.5 57.5,88.5 51.5,88.5C 51.5,85.5 51.5,82.5 51.5,79.5C 57.8333,79.5 64.1667,79.5 70.5,79.5 Z"/></g>
<g><path style="opacity:0.058" fill="#eef9fc" d="M 140.5,83.5 C 146.653,82.3467 152.986,82.18 159.5,83C 160.357,83.6891 161.023,84.5224 161.5,85.5C 156.792,99.7058 147.126,108.539 132.5,112C 125.167,112.667 117.833,112.667 110.5,112C 107.626,111.058 104.96,109.891 102.5,108.5C 114.535,111.292 126.535,111.126 138.5,108C 149.11,102.905 155.777,94.7379 158.5,83.5C 152.5,83.5 146.5,83.5 140.5,83.5 Z"/></g>
<g><path style="opacity:0.063" fill="#effafd" d="M 276.5,93.5 C 274.692,93.5086 273.025,93.0086 271.5,92C 270.167,89.6667 268.833,87.3333 267.5,85C 261.509,84.5005 255.509,84.3338 249.5,84.5C 249.5,86.1667 249.5,87.8333 249.5,89.5C 248.189,87.4402 248.189,85.2735 249.5,83C 256.167,82.3333 262.833,82.3333 269.5,83C 270.841,87.1722 273.175,90.6722 276.5,93.5 Z"/></g>
<g><path style="opacity:0.516" fill="#8bd6f0" d="M 467.5,60.5 C 468.931,60.8807 469.764,61.8807 470,63.5C 471.245,71.2436 470.079,78.577 466.5,85.5C 465.423,86.7051 464.09,87.3718 462.5,87.5C 467.382,80.5829 469.549,72.9162 469,64.5C 467.812,63.4366 467.312,62.1033 467.5,60.5 Z"/></g>
<g><path style="opacity:0.514" fill="#aee0f5" d="M 82.5,54.5 C 81.4414,64.1395 81.2747,73.8062 82,83.5C 84.6109,86.7206 86.1109,90.3873 86.5,94.5C 83.9193,91.6797 82.0859,88.3464 81,84.5C 80.5346,79.9001 79.7013,75.4001 78.5,71C 79.5162,65.3152 80.8496,59.8152 82.5,54.5 Z"/></g>
<g><path style="opacity:0.401" fill="#88dbf1" d="M 393.5,29.5 C 394.5,28.1667 395.5,28.1667 396.5,29.5C 396.831,56.0053 396.498,82.3386 395.5,108.5C 396.158,81.8121 395.491,55.4788 393.5,29.5 Z"/></g>
<g><path style="opacity:0.156" fill="#f7fcfd" d="M 64.5,87.5 C 66.8953,86.1857 69.3953,86.1857 72,87.5C 72.498,90.4816 72.6646,93.4816 72.5,96.5C 66.4632,96.1707 60.4632,96.5041 54.5,97.5C 53.1854,99.1986 53.1854,100.865 54.5,102.5C 52.6565,100.721 51.9898,98.3878 52.5,95.5C 58.5,95.5 64.5,95.5 70.5,95.5C 70.8016,92.9407 70.4682,90.6074 69.5,88.5C 68.0813,87.5489 66.4147,87.2155 64.5,87.5 Z"/></g>
<g><path style="opacity:0.059" fill="#bbe5f4" d="M 413.5,29.5 C 412.292,30.2341 410.959,30.5674 409.5,30.5C 409.5,67.8333 409.5,105.167 409.5,142.5C 409.167,142.5 408.833,142.5 408.5,142.5C 408.167,104.827 408.5,67.1608 409.5,29.5C 410.995,28.2947 412.328,28.2947 413.5,29.5 Z"/></g>
<g><path style="opacity:0.068" fill="#e4f5fb" d="M 306.5,64.5 C 308.17,64.7512 309.67,65.4178 311,66.5C 317.125,74.0774 319.125,82.744 317,92.5C 312.823,103.339 304.99,109.839 293.5,112C 286.5,112.667 279.5,112.667 272.5,112C 270.347,111.901 268.681,111.067 267.5,109.5C 277.523,110.96 287.523,110.793 297.5,109C 314.715,101.036 319.548,88.2028 312,70.5C 309.308,69.248 307.475,67.248 306.5,64.5 Z"/></g>
<g><path style="opacity:0.064" fill="#effafd" d="M 192.5,109.5 C 203.752,111.472 214.752,110.639 225.5,107C 227.305,104.597 229.638,102.93 232.5,102C 239.768,96.587 243.768,89.4204 244.5,80.5C 237.5,80.5 230.5,80.5 223.5,80.5C 223.611,79.8826 223.944,79.3826 224.5,79C 231.167,78.3333 237.833,78.3333 244.5,79C 245.728,79.779 246.728,80.779 247.5,82C 243.45,98.0502 233.45,108.05 217.5,112C 211.167,112.667 204.833,112.667 198.5,112C 196.026,111.963 194.026,111.13 192.5,109.5 Z"/></g>
<g><path style="opacity:0.258" fill="#f5fcff" d="M 432.5,102.5 C 431.761,102.369 431.094,102.536 430.5,103C 431.825,116.167 431.825,129.333 430.5,142.5C 430.167,142.5 429.833,142.5 429.5,142.5C 429.333,128.163 429.5,113.829 430,99.5C 430.698,100.691 431.531,101.691 432.5,102.5 Z"/></g>
<g><path style="opacity:0.873" fill="#dff4fa" d="M 0.5,22.5 C 11.1667,22.5 21.8333,22.5 32.5,22.5C 32.5,51.5 32.5,80.5 32.5,109.5C 45.1667,109.5 57.8333,109.5 70.5,109.5C 70.5,107.167 70.5,104.833 70.5,102.5C 66.5,102.5 62.5,102.5 58.5,102.5C 62.6463,101.353 66.9796,101.186 71.5,102C 72.4558,105.394 72.7892,108.894 72.5,112.5C 59.0725,112.47 45.7392,112.136 32.5,111.5C 31.5002,82.1742 31.1668,52.8409 31.5,23.5C 20.9865,23.8276 10.6532,23.4942 0.5,22.5 Z"/></g>
<g><path style="opacity:0.057" fill="#d5eff8" d="M 376.5,101.5 C 369.245,110.98 359.578,114.48 347.5,112C 345.347,111.901 343.681,111.067 342.5,109.5C 346.153,109.888 349.82,110.221 353.5,110.5C 362.887,110.596 370.387,106.929 376,99.5C 376.464,100.094 376.631,100.761 376.5,101.5 Z"/></g>
</svg>
